<mxfile host="65bd71144e">
    <diagram id="Ht1M8jgEwFfnCIfOTk4-" name="Page-1">
        <mxGraphModel dx="853" dy="634" grid="1" gridSize="10" guides="1" tooltips="1" connect="1" arrows="1" fold="1" page="1" pageScale="1" pageWidth="1169" pageHeight="827" math="0" shadow="0">
            <root>
                <mxCell id="0"/>
                <mxCell id="1" parent="0"/>
                <mxCell id="7puNKeEmt7TFSCBYXdVY-1" value="" style="outlineConnect=0;fontColor=#ffffff;fillColor=#6a00ff;strokeColor=#3700CC;dashed=0;verticalLabelPosition=bottom;verticalAlign=top;align=center;html=1;fontSize=12;fontStyle=0;aspect=fixed;pointerEvents=1;shape=mxgraph.aws4.client;" parent="1" vertex="1">
                    <mxGeometry x="40" y="376" width="78" height="76" as="geometry"/>
                </mxCell>
                <mxCell id="27" value="" style="group" parent="1" vertex="1" connectable="0">
                    <mxGeometry x="870" y="370" width="130" height="160" as="geometry"/>
                </mxCell>
                <mxCell id="23" value="" style="outlineConnect=0;dashed=0;verticalLabelPosition=bottom;verticalAlign=top;align=center;html=1;shape=mxgraph.aws3.cloudwatch;fillColor=#759C3E;gradientColor=none;fontColor=#000;" parent="27" vertex="1">
                    <mxGeometry x="23.75" width="82.5" height="93" as="geometry"/>
                </mxCell>
                <mxCell id="26" value="&lt;span style=&quot;font-size: 24px;&quot;&gt;Cloud&lt;br&gt;Watch&lt;br&gt;&lt;/span&gt;" style="text;html=1;strokeColor=none;fillColor=none;align=center;verticalAlign=middle;whiteSpace=wrap;rounded=0;" parent="27" vertex="1">
                    <mxGeometry y="100" width="130" height="60" as="geometry"/>
                </mxCell>
                <mxCell id="31" value="" style="group" parent="1" vertex="1" connectable="0">
                    <mxGeometry x="130" y="119" width="672" height="590" as="geometry"/>
                </mxCell>
                <mxCell id="7puNKeEmt7TFSCBYXdVY-14" value="VPC" style="points=[[0,0],[0.25,0],[0.5,0],[0.75,0],[1,0],[1,0.25],[1,0.5],[1,0.75],[1,1],[0.75,1],[0.5,1],[0.25,1],[0,1],[0,0.75],[0,0.5],[0,0.25]];outlineConnect=0;gradientColor=none;html=1;whiteSpace=wrap;fontSize=24;fontStyle=1;shape=mxgraph.aws4.group;grIcon=mxgraph.aws4.group_vpc;strokeColor=#248814;fillColor=none;verticalAlign=top;align=left;spacingLeft=30;fontColor=#AAB7B8;dashed=0;rounded=1;" parent="31" vertex="1">
                    <mxGeometry x="62" width="610" height="590" as="geometry"/>
                </mxCell>
                <mxCell id="7puNKeEmt7TFSCBYXdVY-37" value="10.0.0.0/16" style="text;html=1;strokeColor=none;fillColor=none;align=center;verticalAlign=middle;whiteSpace=wrap;rounded=0;fontSize=24;" parent="31" vertex="1">
                    <mxGeometry x="192" y="9" width="40" height="20" as="geometry"/>
                </mxCell>
                <mxCell id="3" value="" style="group" parent="31" vertex="1" connectable="0">
                    <mxGeometry x="382" y="42" width="215" height="244" as="geometry"/>
                </mxCell>
                <mxCell id="7puNKeEmt7TFSCBYXdVY-30" value="10.0.1.0/24" style="text;html=1;strokeColor=none;fillColor=none;align=center;verticalAlign=middle;whiteSpace=wrap;rounded=0;fontSize=24;" parent="3" vertex="1">
                    <mxGeometry x="53.75" width="101.52777777777777" height="21.91616766467066" as="geometry"/>
                </mxCell>
                <mxCell id="2" value="" style="group" parent="3" vertex="1" connectable="0">
                    <mxGeometry y="24.83832335329341" width="215" height="219.16167664670658" as="geometry"/>
                </mxCell>
                <mxCell id="7puNKeEmt7TFSCBYXdVY-16" value="Private subnet" style="points=[[0,0],[0.25,0],[0.5,0],[0.75,0],[1,0],[1,0.25],[1,0.5],[1,0.75],[1,1],[0.75,1],[0.5,1],[0.25,1],[0,1],[0,0.75],[0,0.5],[0,0.25]];outlineConnect=0;gradientColor=none;html=1;whiteSpace=wrap;fontSize=24;fontStyle=1;shape=mxgraph.aws4.group;grIcon=mxgraph.aws4.group_security_group;grStroke=0;strokeColor=#147EBA;fillColor=#E6F2F8;verticalAlign=top;align=left;spacingLeft=30;fontColor=#147EBA;dashed=0;rounded=1;" parent="2" vertex="1">
                    <mxGeometry width="215" height="219.16167664670658" as="geometry"/>
                </mxCell>
                <mxCell id="9" value="" style="outlineConnect=0;dashed=0;verticalLabelPosition=bottom;verticalAlign=top;align=center;html=1;shape=mxgraph.aws3.ecs;fillColor=#F58534;gradientColor=none;" parent="2" vertex="1">
                    <mxGeometry x="71.5" y="75.8316766467066" width="72" height="67.5" as="geometry"/>
                </mxCell>
                <mxCell id="20" value="&lt;font color=&quot;#000000&quot;&gt;ECS&lt;/font&gt;" style="text;html=1;strokeColor=none;fillColor=none;align=center;verticalAlign=middle;whiteSpace=wrap;rounded=0;fontSize=24;" parent="2" vertex="1">
                    <mxGeometry x="56.74000000000001" y="165.16167664670658" width="101.52777777777777" height="21.91616766467066" as="geometry"/>
                </mxCell>
                <mxCell id="4" value="" style="group" parent="31" vertex="1" connectable="0">
                    <mxGeometry x="382" y="322" width="215" height="244" as="geometry"/>
                </mxCell>
                <mxCell id="5" value="10.0.2.0/24" style="text;html=1;strokeColor=none;fillColor=none;align=center;verticalAlign=middle;whiteSpace=wrap;rounded=0;fontSize=24;" parent="4" vertex="1">
                    <mxGeometry x="53.75" width="101.52777777777777" height="21.91616766467066" as="geometry"/>
                </mxCell>
                <mxCell id="6" value="" style="group" parent="4" vertex="1" connectable="0">
                    <mxGeometry y="24.83832335329341" width="215" height="219.16167664670658" as="geometry"/>
                </mxCell>
                <mxCell id="7" value="Private subnet" style="points=[[0,0],[0.25,0],[0.5,0],[0.75,0],[1,0],[1,0.25],[1,0.5],[1,0.75],[1,1],[0.75,1],[0.5,1],[0.25,1],[0,1],[0,0.75],[0,0.5],[0,0.25]];outlineConnect=0;gradientColor=none;html=1;whiteSpace=wrap;fontSize=24;fontStyle=1;shape=mxgraph.aws4.group;grIcon=mxgraph.aws4.group_security_group;grStroke=0;strokeColor=#147EBA;fillColor=#E6F2F8;verticalAlign=top;align=left;spacingLeft=30;fontColor=#147EBA;dashed=0;rounded=1;" parent="6" vertex="1">
                    <mxGeometry width="215" height="219.16167664670658" as="geometry"/>
                </mxCell>
                <mxCell id="10" value="" style="outlineConnect=0;dashed=0;verticalLabelPosition=bottom;verticalAlign=top;align=center;html=1;shape=mxgraph.aws3.ecs;fillColor=#F58534;gradientColor=none;" parent="6" vertex="1">
                    <mxGeometry x="71.5" y="75.83167664670657" width="72" height="67.5" as="geometry"/>
                </mxCell>
                <mxCell id="17" value="&lt;font color=&quot;#000000&quot;&gt;ECS&lt;/font&gt;" style="text;html=1;strokeColor=none;fillColor=none;align=center;verticalAlign=middle;whiteSpace=wrap;rounded=0;fontSize=24;" parent="6" vertex="1">
                    <mxGeometry x="56.74000000000001" y="155.1616766467066" width="101.52777777777777" height="21.91616766467066" as="geometry"/>
                </mxCell>
                <mxCell id="28" value="" style="group" parent="31" vertex="1" connectable="0">
                    <mxGeometry x="231.5" y="260" width="130" height="162" as="geometry"/>
                </mxCell>
                <mxCell id="22" value="" style="outlineConnect=0;dashed=0;verticalLabelPosition=bottom;verticalAlign=top;align=center;html=1;shape=mxgraph.aws3.application_load_balancer;fillColor=#F58534;gradientColor=none;fontColor=#000;" parent="28" vertex="1">
                    <mxGeometry x="30.5" width="69" height="72" as="geometry"/>
                </mxCell>
                <mxCell id="25" value="&lt;span style=&quot;font-size: 24px;&quot;&gt;Applicatin&lt;br&gt;Load&lt;br&gt;Balancer&lt;br&gt;&lt;/span&gt;" style="text;html=1;strokeColor=none;fillColor=none;align=center;verticalAlign=middle;whiteSpace=wrap;rounded=0;" parent="28" vertex="1">
                    <mxGeometry y="102" width="130" height="60" as="geometry"/>
                </mxCell>
                <mxCell id="29" value="" style="group" parent="31" vertex="1" connectable="0">
                    <mxGeometry x="122" y="257" width="130" height="155" as="geometry"/>
                </mxCell>
                <mxCell id="7puNKeEmt7TFSCBYXdVY-20" value="" style="outlineConnect=0;fontColor=#232F3E;gradientColor=none;fillColor=#5A30B5;strokeColor=none;dashed=0;verticalLabelPosition=bottom;verticalAlign=top;align=center;html=1;fontSize=12;fontStyle=0;aspect=fixed;pointerEvents=1;shape=mxgraph.aws4.route_table;rounded=1;" parent="29" vertex="1">
                    <mxGeometry x="20" width="78" height="76" as="geometry"/>
                </mxCell>
                <mxCell id="7puNKeEmt7TFSCBYXdVY-29" value="&lt;span style=&quot;font-size: 24px&quot;&gt;Route&lt;br&gt;Table&lt;/span&gt;" style="text;html=1;strokeColor=none;fillColor=none;align=center;verticalAlign=middle;whiteSpace=wrap;rounded=0;" parent="29" vertex="1">
                    <mxGeometry y="95" width="130" height="60" as="geometry"/>
                </mxCell>
                <mxCell id="30" value="" style="group" parent="31" vertex="1" connectable="0">
                    <mxGeometry y="256" width="130" height="156" as="geometry"/>
                </mxCell>
                <mxCell id="7puNKeEmt7TFSCBYXdVY-19" value="" style="outlineConnect=0;fontColor=#232F3E;gradientColor=none;fillColor=#5A30B5;strokeColor=none;dashed=0;verticalLabelPosition=bottom;verticalAlign=top;align=center;html=1;fontSize=12;fontStyle=0;aspect=fixed;pointerEvents=1;shape=mxgraph.aws4.internet_gateway;rounded=1;" parent="30" vertex="1">
                    <mxGeometry x="22" width="78" height="78" as="geometry"/>
                </mxCell>
                <mxCell id="7puNKeEmt7TFSCBYXdVY-23" value="&lt;font style=&quot;font-size: 24px&quot;&gt;Internet &lt;br&gt;GateWay&lt;/font&gt;" style="text;html=1;strokeColor=none;fillColor=none;align=center;verticalAlign=middle;whiteSpace=wrap;rounded=0;" parent="30" vertex="1">
                    <mxGeometry y="96" width="130" height="60" as="geometry"/>
                </mxCell>
            </root>
        </mxGraphModel>
    </diagram>
</mxfile>